<svg width="980" height="280" viewBox="0 0 980 280" fill="none" xmlns="http://www.w3.org/2000/svg" role="img" aria-labelledby="title desc">
  <title id="title">Gestão Cordial &amp; Morar</title>
  <desc id="desc">Sistema Integrado de Gestão Imobiliária</desc>
  <rect width="980" height="280" rx="34" fill="#FBF8F4"/>
  <rect x="1" y="1" width="978" height="278" rx="33" stroke="#E6DDD2" stroke-width="2"/>
  <g filter="url(#softShadow)">
    <path d="M143 56L236 110V151L208 135V126L143 88L78 126V198L104 213V141L143 119L182 141V173L143 151L128 160V119L143 110L198 141V230L143 198L88 230L49 207V110L143 56Z" fill="url(#tealGradient)"/>
    <path d="M84 136L115 154V223L84 205V136Z" fill="#2A3038"/>
    <path d="M124 160L143 149L204 184V231L174 214V199L143 181L124 192V160Z" fill="url(#copperGradient)"/>
    <path d="M143 56L236 110V151L208 135V126L143 88L78 126V198L49 207V110L143 56Z" fill="url(#topLight)" fill-opacity="0.22"/>
  </g>
  <g>
    <text x="292" y="112" fill="#1E647D" font-family="Inter, Segoe UI, Arial, sans-serif" font-size="62" font-weight="600" letter-spacing="0.5">Gestão</text>
    <text x="292" y="179" fill="#2A3038" font-family="Inter, Segoe UI, Arial, sans-serif" font-size="64" font-weight="600" letter-spacing="0.2">Cordial</text>
    <text x="530" y="179" fill="#D9782D" font-family="Inter, Segoe UI, Arial, sans-serif" font-size="64" font-weight="700">&amp;</text>
    <text x="600" y="179" fill="#2A3038" font-family="Inter, Segoe UI, Arial, sans-serif" font-size="64" font-weight="600" letter-spacing="0.2">Morar</text>
    <line x1="292" y1="216" x2="350" y2="216" stroke="#1E647D" stroke-width="5" stroke-linecap="round"/>
    <text x="382" y="224" fill="#6B7280" font-family="Inter, Segoe UI, Arial, sans-serif" font-size="14" font-weight="700" letter-spacing="2">SISTEMA INTEGRADO DE GESTÃO IMOBILIÁRIA</text>
  </g>
  <defs>
    <linearGradient id="tealGradient" x1="49" y1="56" x2="222" y2="235" gradientUnits="userSpaceOnUse">
      <stop stop-color="#5FAFC7"/>
      <stop offset="0.48" stop-color="#1E647D"/>
      <stop offset="1" stop-color="#174D61"/>
    </linearGradient>
    <linearGradient id="copperGradient" x1="123" y1="149" x2="210" y2="224" gradientUnits="userSpaceOnUse">
      <stop stop-color="#F0A86D"/>
      <stop offset="0.45" stop-color="#D9782D"/>
      <stop offset="1" stop-color="#B95F20"/>
    </linearGradient>
    <linearGradient id="topLight" x1="143" y1="56" x2="143" y2="207" gradientUnits="userSpaceOnUse">
      <stop stop-color="white"/>
      <stop offset="1" stop-color="white" stop-opacity="0"/>
    </linearGradient>
    <filter id="softShadow" x="25" y="36" width="235" height="222" filterUnits="userSpaceOnUse" color-interpolation-filters="sRGB">
      <feDropShadow dx="0" dy="10" stdDeviation="8" flood-color="#171B21" flood-opacity="0.18"/>
    </filter>
  </defs>
</svg>
