<svg xmlns="http://www.w3.org/2000/svg" viewBox="0 0 48 48"><path fill="#fff" d="M37 12H11v26h26z"/><path fill="#1e88e5" d="M21.5 26.2h-3v-2.2h3c1 0 1.8-.7 1.8-1.7s-.8-1.6-1.8-1.6c-.9 0-1.7.5-2 1.2l-2-1c.6-1.5 2.2-2.5 4-2.5 2.3 0 4 1.5 4 3.7 0 1.2-.6 2.2-1.6 2.7 1.2.5 1.9 1.6 1.9 2.9 0 2.3-2 4-4.4 4-2 0-3.7-1.1-4.4-2.7l2.1-.9c.4 1 1.3 1.6 2.3 1.6 1.2 0 2.1-.8 2.1-1.9s-.9-1.6-2-1.6zm6-4.2 2.4-1.7h1.6V31h-2.3v-7.6l-1.1.8z"/><path fill="#fbc02d" d="M37 38 47 28V12z"/><path fill="#4caf50" d="M11 38v9h26l10-9z"/><path fill="#1565c0" d="M37 1H4C2.3 1 1 2.3 1 4v33l10-9h26V12l10-9V4c0-1.7-1.3-3-3-3z"/><path fill="#e53935" d="M11 28 1 37v7c0 1.7 1.3 3 3 3h7z"/><path fill="#2e7d32" d="m47 12 -10 10v16l10-9z"/></svg>
