<svg xmlns="http://www.w3.org/2000/svg" viewBox="0 0 200 200"><path fill="#fff" d="M152.6 47.4H47.4v105.2h105.2z"/><path fill="#1A73E8" d="M152.6 200 200 152.6l-23.7-4.1-23.7 4.1-4.4 22.2z"/><path fill="#EA4335" d="M0 152.6v33.7C0 193.9 6.1 200 13.7 200h33.7l4.9-23.7-4.9-23.7-24.2-4.9z"/><path fill="#4285F4" d="M200 47.4V13.7C200 6.1 193.9 0 186.3 0h-33.7q-2.45 12.3-4.05 19.2c-1.05 4.6-1.85 8.05-2.45 10.35-.6 2.35-1 3.65-1.2 4-.1.15-.1.05 0-.3.1-.4.5-1.65 1.2-3.85.7-2.15 1.45-5.15 2.45-9.45 1-4.25 2.2-9.95 4.05-19.15z"/><path fill="#188038" d="M152.6 200h33.7c7.6 0 13.7-6.1 13.7-13.7v-33.7h-47.4z"/><path fill="#FBBC04" d="M200 47.4h-47.4v105.2H200z"/><path fill="#1967D2" d="M152.6 47.4H47.4V13.7C47.4 6.1 53.5 0 61.1 0h125.2C193.9 0 200 6.1 200 13.7z" transform="translate(-47.4)"/><path fill="#EA4335" d="M0 47.4h47.4V0H13.7C6.1 0 0 6.1 0 13.7z"/><path fill="#4285F4" d="M82.2 129.45c-3.95-2.65-6.65-6.55-8.15-11.65l9.15-3.75c.85 3.2 2.3 5.7 4.4 7.45 2.1 1.75 4.65 2.65 7.6 2.65 3 0 5.6-.9 7.8-2.75 2.2-1.85 3.25-4.2 3.25-7.05 0-2.95-1.15-5.35-3.45-7.2-2.3-1.85-5.2-2.75-8.65-2.75h-5.3v-9.05h4.75c2.95 0 5.45-.8 7.5-2.4 2.05-1.6 3.05-3.8 3.05-6.55 0-2.45-.9-4.4-2.7-5.85s-4.05-2.2-6.85-2.2c-2.7 0-4.85.7-6.45 2.15-1.6 1.45-2.8 3.3-3.45 5.4l-9.05-3.75q1.65-4.65 6-8.25c2.9-2.4 6.65-3.6 11.15-3.6 3.3 0 6.3.65 8.95 1.95s4.7 3.1 6.2 5.4c1.5 2.3 2.25 4.85 2.25 7.7 0 2.9-.7 5.35-2.1 7.4-1.4 2-3.1 3.55-5.15 4.6v.55c2.7.95 4.95 2.5 6.75 4.7s2.7 4.8 2.7 7.85c0 3.05-.75 5.7-2.3 8s-3.7 4.15-6.45 5.55c-2.75 1.4-5.7 2.1-9 2.1-3.85.05-7.45-1.05-10.4-3.05zm45.45-36.65-10 7.25-5.05-7.65 18.05-13h6.95v61.55h-9.95z"/></svg>
